PathFileType	4	(X/Y/Z)	C:/Users/beibeiliu/ov580/test_trc/User3\sequence.19_training_dense_right.trc
DataRate	CameraRate	NumFrames	NumMarkers	Units	OrigDataRate	OrigDataStartFrame	OrigNumFrames
120	120	24	19	mm	120	69	275
Frame#	Time	ThumbCMC			ThumbMCP			ThumbIP			ThumbTip			IndexMCP			IndexPIP			IndexTip			MiddleMCP			MiddlePIP			MiddleTip			RingMCP			RingPIP			RingTip			PinkyMCP			PinkyPIP			PinkyTip			BackHand1			BackHand2			BackHand3	
		X0	Y0	Z0	X1	Y1	Z1	X2	Y2	Z2	X3	Y3	Z3	X4	Y4	Z4	X5	Y5	Z5	X6	Y6	Z6	X7	Y7	Z7	X8	Y8	Z8	X9	Y9	Z9	X10	Y10	Z10	X11	Y11	Z11	X12	Y12	Z12	X13	Y13	Z13	X14	Y14	Z14	X15	Y15	Z15	X16	Y16	Z16	X17	Y17	Z17	X18	Y18	Z18	
68	0.566667	159.1	4.71489	21.8576	147.271	15.1724	1.88617	127.45	33.8675	-16.3163	115.896	43.0619	-28.6196	189.308	39.8504	-41.8898	192.703	52.9993	-63.0376	194.437	67.8092	-84.148	199.836	14.5577	-63.4218	185.285	-9.68545	-73.4973	178.095	-24.1578	-37.0983	212.082	-5.22697	-54.3498	192.481	-28.4627	-56.3199	185.778	-27.3473	-21.2238	221.616	-17.8915	-46.9195	202.862	-34.6548	-46.7843	197.158	-32.5727	-14.0874	223.148	10.7435	2.00335	224.007	-2.16536	28.8998	196.282	18.16	16.333	
69	0.575	159.448	2.88373	19.4322	142.68	12.8355	3.09685	122.938	30.7103	-16.5043	109.941	35.8088	-27.3317	179.865	48.1932	-40.3977	181.325	61.3758	-59.2137	183.743	75.6651	-78.3986	194.68	22.7872	-58.3556	182.182	-3.54058	-72.7822	182.238	-20.8487	-36.5227	210.355	4.01162	-50.8933	194.462	-21.5058	-56.7879	191.671	-26.4243	-21.6042	219.234	-8.12362	-46.0743	208.192	-31.7644	-45.937	201.877	-31.4656	-16.5144	221.63	17.0841	2.46757	216.233	2.36779	34.3898	186.236	17.8534	22.0458	
70	0.583333	155.932	-0.226855	22.4265	138.103	11.9652	2.36381	115.779	26.952	-13.138	103.12	34.2619	-26.7303	176.953	50.4418	-38.9153	173.485	65.0562	-56.7039	173.618	82.3769	-78.5218	194.404	26.5496	-55.7544	180.231	2.47317	-72.8887	180.598	-18.0573	-38.6658	205.273	9.81705	-49.1688	194.239	-17.7773	-57.462	186.19	-23.6968	-24.0598	218.05	-1.97765	-45.4477	204.567	-26.7724	-43.4018	197.684	-26.9366	-17.6442	216.926	20.4681	3.12111	214.707	6.5286	31.5197	184.229	22.021	22.3026	
71	0.591667	152.376	0.361599	22.3951	131.677	10.4308	7.01801	115.343	24.2803	-15.0729	97.2011	32.7092	-27.8867	169.68	50.1383	-35.1342	170.667	65.8478	-56.7778	166.817	80.4325	-73.3401	186.015	29.1088	-56.7184	178.456	4.13136	-72.6004	175.099	-15.3223	-34.2961	202.634	11.5018	-49.7963	197.099	-16.1258	-55.523	185.805	-21.4597	-21.0435	218.52	0.516273	-41.2799	203.448	-21.3308	-45.7042	197.726	-25.0995	-18.0174	213.669	23.3266	8.36533	210.722	6.04026	37.536	179.125	18.2685	25.1871	
72	0.6	149.919	-2.52372	25.9353	129.232	10.3066	4.66696	111.337	22.1937	-14.1692	95.0349	28.6509	-28.0112	167.447	47.5233	-32.3139	165.227	66.5318	-56.0395	164.889	80.8557	-75.2746	184.648	29.5096	-54.2927	179.735	2.46265	-71.0248	173.49	-15.6641	-37.7236	200.216	13.9652	-47.0346	190.078	-15.8702	-54.2761	187.196	-21.7292	-20.909	214.885	3.32881	-39.2502	199.852	-21.8182	-41.6155	196.95	-24.638	-11.148	209.33	24.2146	9.27546	210.147	9.9378	34.1958	173.732	21.7353	22.408	
73	0.608333	146.697	-0.278162	23.5189	123.637	7.68703	8.18194	107.94	18.2812	-12.6582	92.2837	25.4357	-25.3773	162.133	48.1141	-33.487	156.315	63.7912	-54.3898	158.04	78.1097	-72.4269	180.622	29.4143	-53.3346	176.238	4.68646	-70.7661	171.597	-16.5338	-37.1103	196.494	13.4557	-45.8394	191.576	-18.7119	-53.0659	184.214	-22.3379	-19.9583	213.382	1.31434	-38.9596	201.634	-24.7959	-40.5573	194.218	-24.9334	-8.96355	203.536	24.0404	7.11466	204.933	8.40288	37.3051	170.922	19.3262	25.4806	
74	0.616667	144.391	-2.90708	24.5633	123.922	6.67558	4.81383	105.277	15.0862	-11.7993	89.3353	21.9261	-26.7109	159.174	44.3718	-35.5131	155.452	60.5166	-57.8397	158.947	72.1779	-76.6797	178.035	24.6988	-54.2541	174.921	-3.18594	-68.9747	171.762	-20.5101	-35.8879	195.445	10.0637	-45.9248	187.975	-23.2582	-49.1961	181.773	-26.0478	-20.1509	210.946	-1.63301	-39.0334	196.616	-28.0324	-38.4042	190.021	-24.183	-9.18425	204.391	22.9964	5.79169	202.991	7.73818	37.9538	169.581	21.4394	22.1869	
75	0.625	141.221	-3.2999	24.4565	120.6	2.43236	8.10881	100.764	10.4542	-9.6633	82.119	18.3169	-24.0563	157.048	39.6908	-40.5845	153.894	51.753	-62.4432	152.3	64.216	-82.9283	174.365	19.412	-52.7433	168.596	-11.7734	-68.2428	168.319	-23.7063	-28.8638	192.95	0.375888	-50.2367	184.331	-26.1741	-52.1031	178.874	-28.3438	-17.8152	209.266	-6.67068	-38.3652	197.314	-32.3604	-39.8093	189.053	-30.0169	-7.78077	202.656	20.1893	4.91711	201.228	6.60179	36.2592	166.095	21.1141	21.818	
76	0.633333	139.589	-5.11993	25.564	118.106	2.21096	3.26822	99.3821	7.06667	-13.2126	79.7742	11.3645	-22.9281	159.105	30.2791	-41.2428	151.458	41.1803	-66.5912	156.048	50.6483	-93.9042	173.777	8.66438	-56.5311	168.908	-23.3251	-66.5747	164.073	-30.923	-29.056	190.045	-5.88006	-47.3737	182.142	-37.8347	-46.3847	176.15	-34.0371	-15.2634	205.776	-14.5565	-37.9298	193.608	-39.575	-37.623	183.367	-33.5776	-6.58268	198.504	14.0832	7.10603	202.236	8.08815	33.5645	166.821	16.0676	23.7834	
77	0.641667	137.462	-5.62385	23.8636	120.799	-4.64448	3.26388	99.0544	2.79603	-13.9099	79.8946	6.0665	-25.3084	155.663	23.5358	-49.8752	154.808	27.825	-74.3287	159.061	32.4895	-99.1666	175.016	-4.93205	-58.2714	164.66	-34.1422	-64.2573	165.287	-39.1366	-24.5256	192.198	-21.3291	-50.456	178.906	-45.6998	-45.3901	171.733	-42.1683	-13.7359	208.382	-27.6423	-36.9825	192.376	-50.4948	-31.2984	185.689	-38.4196	-2.3732	198.88	8.74094	1.35574	201.619	3.13139	30.8978	169.037	12.6995	17.6778	
78	0.65	136.714	-7.03013	24.1881	118.559	-6.99299	4.69008	95.7164	1.16507	-19.1871	81.3732	2.63326	-31.978	159.73	8.42424	-50.4599	155.596	13.1813	-78.5232	161.177	13.2592	-103.939	175.122	-16.0765	-55.8615	167.82	-49.3123	-59.8562	162.391	-48.0714	-20.8378	191.229	-32.8903	-46.8323	180.318	-60.0539	-37.548	172.208	-48.1233	-8.00365	204.956	-40.9455	-36.6212	191.828	-61.1928	-27.7267	181.489	-47.7074	-1.42812	199.109	4.14759	0.0662086	197.515	2.9858	32.4095	168.282	9.63959	13.4406	
79	0.658333	136.437	-8.24452	20.6289	117.828	-6.99434	1.39015	100.677	-5.94156	-16.8067	83.9846	-1.79504	-32.927	158.157	-2.96613	-58.0321	161.233	-4.86724	-83.581	158.984	-6.42101	-107.235	172.164	-30.2615	-55.8229	162.586	-62.0826	-54.6968	158.647	-53.0086	-12.5112	187.54	-41.694	-42.6414	174.256	-70.2597	-32.1296	169.557	-53.7482	-2.11565	204.042	-52.6651	-33.0086	184.525	-68.2875	-23.6926	180.842	-53.2189	5.69675	199.001	-3.24089	-0.985264	197.125	-0.308718	27.3835	166.587	5.22574	12.0804	
80	0.666667	136.901	-8.68499	21.1749	117.191	-9.19602	-1.58763	98.5158	-7.42225	-19.704	79.9956	-3.51066	-29.1863	161.377	-16.4089	-58.3689	158.263	-20.6585	-83.1948	159.915	-25.963	-107.092	171.107	-46.0812	-53.0329	159.996	-75.7633	-45.7082	153.711	-62.1753	-8.36692	185.357	-54.2269	-39.4745	170.585	-78.6751	-26.5421	164.748	-61.5399	3.18219	198.466	-60.924	-28.5552	181.154	-78.2649	-12.8253	179.415	-55.7841	9.8653	197.433	-10.5617	-3.12699	197.985	-5.8998	26.1998	166.861	0.740783	9.59584	
81	0.675	136.346	-11.0418	20.8818	117.582	-13.1012	0.54453	97.6256	-9.60396	-18.3999	83.3129	-9.31143	-32.1069	155.84	-26.5352	-57.3964	154.674	-34.826	-81.3653	156.128	-42.569	-106.281	168.506	-59.6754	-49.7811	154.071	-84.5727	-34.0917	149.943	-65.6788	-1.384	181.484	-67.1649	-34.1333	163.316	-86.2531	-15.667	164.21	-65.3065	11.7212	193.846	-72.4117	-22.1863	177.189	-85.2059	-4.20651	173.388	-62.5634	15.8579	197.459	-18.3718	-1.24861	201.468	-10.1688	27.3827	170.812	-4.39198	7.82183	
82	0.683333	133.706	-10.4446	20.9536	117.188	-13.8925	1.53958	98.8283	-12.9399	-20.0832	81.4246	-9.68757	-31.7018	155.189	-38.6776	-54.3495	151.388	-46.8513	-75.6386	151.679	-58.3362	-96.0578	161.272	-65.8516	-42.4997	143.293	-89.567	-31.0435	145.676	-67.424	7.20196	173.481	-76.1294	-27.5159	155.93	-90.437	-6.11834	156.38	-70.4777	16.7914	189.138	-78.0292	-15.5298	170.527	-90.6041	3.92	166.755	-67.741	21.5804	196.95	-27.522	-4.80312	198.808	-13.7133	23.4517	167.843	-9.05126	5.43531	
83	0.691667	136.193	-12.4729	24.4744	114.355	-14.2116	2.95159	96.6306	-13.3684	-15.6008	79.4768	-10.0624	-28.439	148.692	-46.3027	-47.8437	141.165	-58.6227	-72.7119	137.598	-72.0374	-93.461	154.829	-74.5716	-35.3904	135.38	-95.6541	-18.9938	137.119	-71.8874	13.3312	165.315	-79.7464	-20.5702	150.222	-96.9009	-0.0212438	146.515	-70.5151	24.0831	177.578	-88.3297	-8.3465	158.971	-92.9315	11.2528	158.748	-71.0825	27.8858	194.956	-34.7324	-2.07301	199.603	-19.8946	28.2381	167.591	-11.5618	6.01776	
84	0.7	134.607	-12.1908	26.5677	115.549	-16.5275	5.90904	93.041	-12.9349	-14.3844	78.4385	-11.5022	-24.0111	136.121	-51.6119	-45.2921	132.075	-68.9782	-64.0939	126.551	-83.4957	-83.6839	142.351	-78.3243	-26.8986	122.206	-97.9904	-4.97584	132.481	-72.1172	23.6307	152.153	-88.1242	-13.4229	141.008	-100.978	12.3969	138.224	-73.1633	31.1898	172.375	-91.7714	-1.18038	152.481	-100.237	20.1794	150.449	-74.0559	33.4429	184.765	-40.5609	-2.46148	195.532	-25.5453	25.0773	165.138	-18.0291	7.01181	
85	0.708333	133.342	-12.4422	27.5463	112.231	-14.0206	10.8038	92.1869	-14.3793	-9.32276	74.4428	-6.81946	-17.9899	128.575	-57.3597	-35.565	120.047	-73.5227	-55.5003	112.31	-91.3699	-74.0881	127.34	-85.0616	-19.074	112.128	-99.9151	2.86532	123.581	-69.9855	32.1691	144.119	-95.018	-1.92722	126.588	-100.132	20.117	135.2	-73.1225	41.8634	157.145	-98.8186	8.10406	140.828	-100.97	28.8466	144.25	-71.1864	39.7724	179.988	-46.5913	3.74583	192.349	-30.5872	30.0624	163.83	-19.9552	12.2764	
86	0.716667	131.034	-10.1009	29.0487	109.606	-9.42986	15.5374	87.6453	-7.18668	-6.63757	72.2989	-1.96975	-12.9561	118.121	-62.1114	-31.6877	107.781	-76.6016	-44.9307	97.5372	-98.736	-63.8595	118.892	-87.2292	-11.2601	98.8095	-98.1827	14.3859	113.885	-68.0133	38.4194	130.07	-97.7733	6.47306	113.912	-96.4829	31.8809	124.285	-67.7412	45.8115	145.549	-100.46	15.8581	127.094	-98.115	36.6976	134.895	-72.4491	47.9179	172.293	-55.4075	6.01571	190.088	-36.4872	27.3816	158.529	-24.4868	9.55648	
87	0.725	131.315	-8.31832	33.0874	107.741	-8.99572	13.3702	85.119	-3.72472	-4.83785	69.3309	1.77248	-15.5769	109.841	-64.0813	-24.8831	96.134	-77.6219	-37.9255	81.6341	-92.8793	-54.0818	104.478	-86.9991	-4.73181	84.659	-92.2094	19.3677	103.106	-69.7218	45.5038	117.411	-95.7225	12.0229	105.135	-95.0609	40.2306	117.414	-67.496	52.0642	134.092	-103.431	23.9272	117.694	-96.5135	43.9928	132.514	-70.363	53.448	167.624	-59.7277	9.402	181.928	-43.2743	29.113	155	-26.6359	14.6966	
88	0.733333	131.745	-5.72346	33.9919	107.715	-1.67774	15.2092	87.6018	-0.720582	-2.6451	70.608	4.07263	-15.5453	101.96	-61.6387	-19.8351	85.2472	-78.1403	-35.4664	67.3924	-92.0089	-49.0489	95.9073	-85.6748	-0.0775126	74.5506	-88.5304	22.7245	92.643	-62.2089	49.6741	103.366	-90.2737	16.348	92.3785	-86.3217	44.7456	114.708	-61.5538	54.5635	121.087	-99.5032	26.0868	106.404	-91.6268	50.7229	125.165	-65.4945	54.8145	154.495	-63.0115	10.2095	175.013	-46.7886	27.932	150.218	-28.0409	12.888	
89	0.741667	130.95	-5.63211	28.2953	110.688	0.958678	13.5185	90.0866	7.41444	-7.82676	76.5928	12.8681	-16.4884	93.7063	-55.0875	-19.0348	75.6513	-65.2909	-32.4487	59.5943	-86.0387	-45.7098	87.1814	-76.2094	1.47123	62.6411	-74.416	25.5993	86.0294	-51.5875	49.4705	92.5793	-83.9409	18.3509	83.0349	-79.7276	45.1405	103.524	-54.2192	53.6334	108.008	-96.532	31.4472	94.1902	-84.2524	50.4391	115.188	-62.4912	57.683	151.036	-65.3328	13.8685	171.217	-53.3009	30.3128	146.395	-28.6115	9.82584	
90	0.75	136.483	-1.24763	26.369	116.609	5.68798	5.8628	98.4289	13.0915	-16.2907	87.8693	24.9393	-26.1078	89.1231	-47.9308	-22.6169	71.8279	-60.6942	-31.1985	52.8608	-71.7656	-44.4951	81.3605	-67.4139	0.725002	55.8362	-59.9675	23.3155	78.5848	-42.0469	48.6457	86.9966	-77.6494	19.7713	75.5072	-63.5557	47.0384	103.374	-46.3694	51.0269	97.7375	-87.1602	32.7478	87.2375	-73.0382	55.0513	109.597	-56.1044	55.5998	141.414	-65.5989	12.4776	168.45	-51.631	32.4386	147.075	-29.3031	8.47539	
91	0.758333	143.042	-4.5836	22.7124	126.467	7.19333	-0.842629	111.429	15.921	-17.3283	104.374	29.0336	-32.4469	90.2344	-45.5098	-22.2663	67.6317	-52.2815	-36.7906	48.9536	-62.2879	-47.0873	75.7992	-57.5154	-0.340567	53.394	-44.181	23.7006	81.2678	-29.3699	45.1021	78.9314	-66.1018	18.8116	71.5983	-51.5196	47.1242	99.0558	-37.0559	48.8052	89.0464	-80.3692	35.7394	81.7092	-58.2921	53.47	106.873	-47.5571	54.4888	137.178	-68.1267	13.5151	164.724	-59.3211	33.2199	150.371	-31.9454	10.087	
